<svg version="1.1" xmlns="http://www.w3.org/2000/svg" xmlns:xlink="http://www.w3.org/1999/xlink" viewBox="0 0 60 60" xml:space="preserve" data-animoptions="{'duration':'2.5', 'repeat':'0', 'repeatDelay':'1'}" preserveAspectRatio="xMinYMin meet" style="left: 0.5px; top: -0.1875px;"><g class="lievo-setrotation"><g class="lievo-setsharp"><g class="lievo-setflip"><g class="lievo-main">
		<g class="lievo-common">
			<path class="lievo-donotdraw" fill="none" stroke="#34495E" stroke-width="2" stroke-linecap="square" stroke-miterlimit="10" d="M7,51L30,8L53,51z" opacity="0" style="opacity: 0; stroke-dashoffset: 1e-05; stroke-dasharray: none;"></path>
		</g>

		<g class="lievo-filledicon" data-svg-origin="11.034157495885097 47.74241106767639" transform="matrix(1,0,0,1,0.9662455690868631,-0.7427599874157128)" style="transform-origin: 0px 0px 0px;">
			<path fill="#E9E7D0" stroke="#E9E7D0" stroke-width="0" d="M50.41,18.07c0.78-0.78,0.78-2.05,0-2.83l-5.66-5.66c-0.78-0.78-2.05-0.78-2.83,0L15.06,36.46l-1.41,5.66l4.24,4.24l5.66-1.41L50.41,18.07z" style="fill-opacity: 1; stroke-opacity: 1; stroke-dashoffset: 0; stroke-dasharray: none; stroke: rgb(233, 231, 208);"></path>
			<path fill="#F1C40F" stroke="#F1C40F" stroke-width="0" d="M21.78,38.22c-1.36,1.36-3.64,0.6-6.36-2.12l22.98-22.98l8.49,8.49L23.9,44.59C21.17,41.86,20.41,39.58,21.78,38.22z" style="fill-opacity: 1; stroke-opacity: 1; stroke-dashoffset: 0; stroke-dasharray: none; stroke: rgb(241, 196, 15);"></path>
			<polygon fill="#34495E" stroke="#34495E" stroke-width="0" points="12.23,47.77 16.83,46.71 13.29,43.17" style="fill-opacity: 1; stroke-opacity: 1; stroke-dashoffset: 0; stroke-dasharray: none; stroke: rgb(52, 73, 94);"></polygon>
			<path fill="none" stroke="#34495E" stroke-width="2" stroke-linecap="square" stroke-miterlimit="10" d="M47.64,12.47l2.77,2.77c0.78,0.78,0.78,2.05,0,2.83L23.54,44.94l-11.31,2.83l2.83-11.31L41.93,9.59c0.78-0.78,2.05-0.78,2.83,0L47.64,12.47" style="fill-opacity: 1; stroke-opacity: 1; stroke-dashoffset: 0; stroke-dasharray: none; stroke: rgb(52, 73, 94);"></path>
			<line class="lievo-savelinecap" fill="none" stroke="#34495E" stroke-width="2" stroke-linecap="square" stroke-miterlimit="10" x1="42.28" y1="17.72" x2="21.78" y2="38.22" style="fill-opacity: 1; stroke-opacity: 1; stroke-dashoffset: 0; stroke-dasharray: none; stroke: rgb(52, 73, 94);"></line>
			<line class="lievo-savelinecap" fill="none" stroke="#34495E" stroke-width="2" stroke-miterlimit="10" x1="38.39" y1="13.12" x2="46.88" y2="21.61" style="fill-opacity: 1; stroke-opacity: 1; stroke-dashoffset: 0; stroke-dasharray: none; stroke: rgb(52, 73, 94);"></line>
			<line class="lievo-savelinecap" fill="none" stroke="#34495E" stroke-width="2" stroke-miterlimit="10" x1="13.29" y1="43.17" x2="16.83" y2="46.71" style="fill-opacity: 1; stroke-opacity: 1; stroke-dashoffset: 0; stroke-dasharray: none; stroke: rgb(52, 73, 94);"></line>
			<path class="lievo-savelinecap" fill="none" stroke="#34495E" stroke-width="2" stroke-miterlimit="10" d="M21.78,38.22c-1.36,1.36-0.6,3.64,2.12,6.36" style="fill-opacity: 1; stroke-opacity: 1; stroke-dashoffset: 0; stroke-dasharray: none; stroke: rgb(52, 73, 94);"></path>
			<path class="lievo-savelinecap" fill="none" stroke="#34495E" stroke-width="2" stroke-miterlimit="10" d="M21.78,38.22c-1.36,1.36-3.64,0.6-6.36-2.12" style="fill-opacity: 1; stroke-opacity: 1; stroke-dashoffset: 0; stroke-dasharray: none; stroke: rgb(52, 73, 94);"></path>
		</g>
		
		

		
	<rect x="-19" y="-19" width="4" height="4" fill="none" stroke="#ffffff" style="stroke-width: 2; stroke-linecap: butt; stroke-linejoin: round; opacity: 0;" class="lievo-checkshift lievo-donotdraw lievo-nohoverstroke lievo-nohovercolor"></rect></g></g></g></g>
	
<desc>LivIcons Evolution</desc><defs></defs></svg>